<?xml version="1.0" encoding="UTF-8" standalone="no"?>
<svg
   xmlns:dc="http://purl.org/dc/elements/1.1/"
   xmlns:cc="http://creativecommons.org/ns#"
   xmlns:rdf="http://www.w3.org/1999/02/22-rdf-syntax-ns#"
   xmlns:svg="http://www.w3.org/2000/svg"
   xmlns="http://www.w3.org/2000/svg"
   xmlns:sodipodi="http://sodipodi.sourceforge.net/DTD/sodipodi-0.dtd"
   xmlns:inkscape="http://www.inkscape.org/namespaces/inkscape"
   inkscape:version="1.0 (4035a4fb49, 2020-05-01)"
   sodipodi:docname="EKIcon.svg"
   id="svg29"
   xml:space="preserve"
   width="48px"
   viewBox="0 0 48 48"
   version="1.1"
   height="48px"
   enable-background="new 0 0 48 48"><metadata
     id="metadata35"><rdf:RDF><cc:Work
         rdf:about=""><dc:format>image/svg+xml</dc:format><dc:type
           rdf:resource="http://purl.org/dc/dcmitype/StillImage" /><dc:title></dc:title></cc:Work></rdf:RDF></metadata><defs
     id="defs33"><clipPath
       id="clipPath193"
       clipPathUnits="userSpaceOnUse"><g
         transform="matrix(5.046991,-5.046991,5.2421639,5.2421639,115.7891,232.21202)"
         id="g221"><g
           id="g219"><g
             id="g197"><path
               id="path195"
               d="M 30.563,48 H 2.257 L 2.339,46.925 C 2.798,40.854 6.227,37.229 12.536,36.14 V 35 h -2 v -6 h 12 v 6 h -2 v 1.14 c 6.223,1.075 9.48,4.61 9.947,10.785 z M 4.453,46 h 23.918 c -0.69,-4.807 -3.496,-7.292 -8.966,-8.008 l -0.87,-0.114 V 33 h 2 v -2 h -8 v 2 h 2 v 4.877 l -0.87,0.114 C 8.115,38.718 5.162,41.273 4.453,46 Z" /></g><g
             id="g201"><path
               id="path199"
               d="m 20,27.015 c -0.256,0 -0.512,-0.098 -0.707,-0.293 -0.391,-0.391 -0.391,-1.023 0,-1.414 L 43.642,0.958 c 0.391,-0.391 1.023,-0.391 1.414,0 0.391,0.391 0.391,1.023 0,1.414 L 20.707,26.722 C 20.512,26.917 20.256,27.015 20,27.015 Z" /></g><g
             id="g205"><path
               id="path203"
               d="m 23.136,23.878 c -0.256,0 -0.512,-0.098 -0.707,-0.293 -3.172,-3.172 -0.687,-10.626 5.657,-16.97 3.027,-3.027 6.427,-5.291 9.573,-6.375 0.305,-0.106 0.644,-0.057 0.906,0.131 0.263,0.188 0.419,0.491 0.419,0.814 v 6.814 c 0,0.552 -0.448,1 -1,1 -0.552,0 -1,-0.448 -1,-1 V 2.66 c -2.474,1.119 -5.136,3.02 -7.485,5.369 -5.834,5.833 -7.664,12.135 -5.657,14.142 0.391,0.391 0.391,1.024 0,1.414 -0.195,0.196 -0.45,0.293 -0.706,0.293 z" /></g><g
             id="g209"><path
               id="path207"
               d="M 40.45,16 H 31 c -0.552,0 -1,-0.448 -1,-1 0,-0.552 0.448,-1 1,-1 h 9.45 c 0.552,0 1,0.448 1,1 0,0.552 -0.448,1 -1,1 z" /></g><g
             id="g213"><path
               id="path211"
               d="m 26.093,24.942 c -1.493,0 -2.75,-0.442 -3.664,-1.356 -0.391,-0.39 -0.391,-1.023 0,-1.414 0.391,-0.391 1.023,-0.391 1.414,0 1.625,1.624 5.47,0.693 9.646,-2.171 H 27 c -0.552,0 -1,-0.448 -1,-1 0,-0.552 0.448,-1 1,-1 h 9.45 c 0.42,0 0.796,0.263 0.94,0.658 0.144,0.395 0.025,0.838 -0.297,1.108 -4.021,3.371 -7.988,5.175 -11,5.175 z" /></g><g
             id="g217"><path
               id="path215"
               d="M 43.45,12 H 35 c -0.552,0 -1,-0.448 -1,-1 0,-0.552 0.448,-1 1,-1 h 7.862 c 1.847,-3.435 2.145,-6.263 0.78,-7.628 -0.391,-0.391 -0.391,-1.024 0,-1.414 0.391,-0.391 1.023,-0.391 1.414,0 2.139,2.139 1.87,5.98 -0.738,10.539 C 44.14,11.808 43.809,12 43.45,12 Z" /></g></g></g></clipPath></defs><sodipodi:namedview
     inkscape:current-layer="svg29"
     inkscape:window-maximized="0"
     inkscape:window-y="5"
     inkscape:window-x="5"
     inkscape:cy="35.858855"
     inkscape:cx="-17.888441"
     inkscape:zoom="11.964941"
     showgrid="false"
     id="namedview31"
     inkscape:window-height="2065"
     inkscape:window-width="3830"
     inkscape:pageshadow="2"
     inkscape:pageopacity="0"
     guidetolerance="10"
     gridtolerance="10"
     objecttolerance="10"
     borderopacity="1"
     bordercolor="#666666"
     pagecolor="#ffffff" /><g
     clip-path="url(#clipPath193)"
     style="opacity:0.938253"
     transform="matrix(0.09906893,0.09538046,-0.09906893,0.09538046,11.533894,-33.192507)"
     id="g119"><rect
       y="0"
       x="0"
       fill="#750787"
       width="777"
       height="480"
       id="rect93" /><rect
       y="0"
       x="0"
       fill="#004dff"
       width="777"
       height="400"
       id="rect95" /><rect
       y="0"
       x="0"
       fill="#008026"
       width="777"
       height="320"
       id="rect97" /><rect
       y="0"
       x="0"
       fill="#ffed00"
       width="777"
       height="240"
       id="rect99" /><rect
       y="0"
       x="0"
       fill="#ff8c00"
       width="777"
       height="160"
       id="rect101" /><rect
       y="0"
       x="0"
       fill="#e40303"
       width="777"
       height="80"
       id="rect103" /></g></svg>
