<?xml version="1.0" standalone="no"?>
<!DOCTYPE svg PUBLIC "-//W3C//DTD SVG 20010904//EN"
 "http://www.w3.org/TR/2001/REC-SVG-20010904/DTD/svg10.dtd">
<svg version="1.0" xmlns="http://www.w3.org/2000/svg"
 width="700.000000pt" height="700.000000pt" viewBox="0 0 700.000000 700.000000"
 preserveAspectRatio="xMidYMid meet">
<metadata>
Created by potrace 1.11, written by Peter Selinger 2001-2013
</metadata>
<g transform="translate(0.000000,700.000000) scale(0.100000,-0.100000)"
fill="#000000" stroke="none">
<path d="M5465 6955 c-33 -12 -71 -26 -85 -32 -14 -6 -45 -19 -70 -29 -82 -32
-310 -153 -430 -229 -743 -465 -1411 -1238 -1683 -1945 -29 -74 -76 -228 -83
-268 -3 -15 -7 -36 -11 -47 -12 -41 -31 -203 -32 -285 -1 -76 6 -148 24 -233
8 -41 53 -158 71 -186 16 -23 13 -26 -184 -225 -213 -214 -224 -229 -207 -306
10 -46 65 -97 114 -105 72 -12 95 3 300 209 l194 194 61 -29 c114 -53 205 -71
366 -71 245 -1 457 55 769 203 222 106 491 274 681 426 180 144 200 167 200
230 0 66 -43 125 -102 141 -18 4 -264 8 -545 7 -282 0 -513 2 -513 5 0 3 64
69 143 147 l142 142 677 -1 c641 0 678 1 708 18 103 61 94 213 -15 260 -24 10
-136 13 -490 13 -253 0 -489 1 -525 1 l-65 0 145 145 145 145 600 0 c675 0
644 -3 697 75 88 133 220 445 268 634 91 361 55 630 -114 850 -49 63 -82 87
-126 91 -80 7 -65 19 -440 -355 -195 -195 -358 -355 -360 -355 -3 0 -5 149 -5
332 0 365 -2 384 -61 423 -47 30 -92 33 -159 10z m-71 -726 l-1 -340 -994
-995 c-547 -547 -997 -994 -1001 -994 -17 0 -35 131 -32 235 5 214 76 452 217
730 63 123 88 166 185 315 50 76 187 267 201 280 4 3 39 46 80 95 98 119 410
429 536 534 246 204 453 343 700 470 95 49 100 50 105 31 3 -12 5 -174 4 -361z
m1080 204 c42 -195 -25 -496 -177 -799 l-46 -91 -397 -1 -397 0 494 494 c354
354 496 490 501 480 4 -8 14 -45 22 -83z m-1604 -2355 c0 -14 -252 -162 -405
-238 -271 -134 -495 -194 -685 -186 -93 4 -170 20 -170 34 0 4 89 95 198 203
l197 195 432 -1 c238 0 433 -3 433 -7z"/>
<path d="M1538 2763 c-3 -7 -2 -828 1 -858 1 -7 54 -10 144 -10 l142 0 0 -84
c0 -77 -2 -85 -20 -86 -72 -8 -258 -56 -386 -101 -119 -41 -310 -134 -387
-188 -28 -20 -56 -36 -61 -36 -5 0 -11 -3 -13 -8 -1 -4 -23 -23 -48 -42 -77
-60 -203 -195 -269 -287 -133 -187 -245 -471 -276 -703 -2 -14 -6 -41 -9 -60
-6 -37 -12 -97 -21 -222 l-6 -78 2064 0 2065 0 -3 33 c-2 17 -6 68 -9 112 -9
114 -21 212 -36 280 -5 22 -12 56 -15 75 -29 173 -169 491 -271 617 -220 272
-473 436 -844 547 -63 19 -266 66 -284 66 -1 0 -2 37 -1 82 l0 83 135 1 c74 1
140 2 145 3 7 1 11 145 11 436 l0 435 -872 0 c-480 0 -874 -3 -876 -7z m1457
-428 l0 -145 -146 0 -146 0 1 -357 1 -358 50 -6 c123 -15 156 -21 255 -40 562
-110 904 -378 1054 -830 35 -104 77 -288 69 -301 -6 -11 -3483 -8 -3483 3 0 5
9 53 21 106 123 569 511 910 1166 1027 81 15 210 34 253 38 l25 3 3 357 2 356
-142 1 c-78 1 -143 2 -144 4 -4 4 -6 72 -5 180 l1 107 583 0 582 0 0 -145z"/>
</g>
</svg>
